<svg width="47" height="42" viewBox="0 0 47 42" fill="none" xmlns="http://www.w3.org/2000/svg">
<g clip-path="url(#clip0)">
<path d="M37.8617 0H9.13949C8.8131 0 8.50303 0.164062 8.32351 0.442969L0.163791 12.518C-0.0728409 12.8789 -0.0483617 13.3547 0.220909 13.6828L22.7417 41.6391C23.1334 42.123 23.8678 42.123 24.2595 41.6391L46.7803 13.6828C47.0496 13.3465 47.074 12.8789 46.8374 12.518L38.6858 0.442969C38.4982 0.164062 38.1963 0 37.8617 0ZM36.2869 3.9375L41.452 11.8125H35.8707L31.6522 3.9375H36.2869V3.9375ZM19.7961 3.9375H27.197L31.4155 11.8125H15.5857L19.7961 3.9375ZM10.7143 3.9375H15.349L11.1305 11.8125H5.54921L10.7143 3.9375ZM7.20563 15.75H11.3997L16.9728 28.875L7.20563 15.75V15.75ZM15.602 15.75H31.3992L23.5006 35.7082L15.602 15.75V15.75ZM30.0284 28.875L35.5933 15.75H39.7874L30.0284 28.875Z" fill="black"/>
</g>
<defs>
<clipPath id="clip0">
<rect width="47" height="42" fill="white"/>
</clipPath>
</defs>
</svg>
